<?xml version="1.0" encoding="UTF-8" standalone="no"?><svg xmlns="http://www.w3.org/2000/svg" xmlns:xlink="http://www.w3.org/1999/xlink" contentStyleType="text/css" height="585px" preserveAspectRatio="none" style="width:976px;height:585px;background:#FFFFFF;" version="1.1" viewBox="0 0 976 585" width="976px" zoomAndPan="magnify"><defs/><g><rect fill="#FFFFFF" height="21.0146" rx="5" ry="5" style="stroke:#FFFFFF;stroke-width:1.0;" width="78" x="5" y="223.5"/><text fill="#000000" font-family="Verdana" font-size="14" font-weight="bold" lengthAdjust="spacing" textLength="43" x="10" y="239.5752">items</text><text fill="#000000" font-family="Verdana" font-size="14" lengthAdjust="spacing" textLength="15" x="63" y="239.5752">   </text><line style="stroke:#000000;stroke-width:1.0;" x1="58" x2="58" y1="223.5" y2="244.5146"/><rect fill="none" height="21.0146" rx="5" ry="5" style="stroke:#000000;stroke-width:1.0;" width="78" x="5" y="223.5"/><rect fill="#FFFFFF" height="21.0146" rx="5" ry="5" style="stroke:#FFFFFF;stroke-width:1.0;" width="70" x="120" y="223.5"/><text fill="#000000" font-family="Verdana" font-size="14" font-weight="bold" lengthAdjust="spacing" textLength="35" x="125" y="239.5752">item</text><text fill="#000000" font-family="Verdana" font-size="14" lengthAdjust="spacing" textLength="15" x="170" y="239.5752">   </text><line style="stroke:#000000;stroke-width:1.0;" x1="165" x2="165" y1="223.5" y2="244.5146"/><rect fill="none" height="21.0146" rx="5" ry="5" style="stroke:#000000;stroke-width:1.0;" width="70" x="120" y="223.5"/><rect fill="#FFFFFF" height="21.0146" rx="5" ry="5" style="stroke:#FFFFFF;stroke-width:1.0;" width="25" x="227" y="223.5"/><text fill="#000000" font-family="Verdana" font-size="14" lengthAdjust="spacing" textLength="15" x="232" y="239.5752">   </text><rect fill="none" height="21.0146" rx="5" ry="5" style="stroke:#000000;stroke-width:1.0;" width="25" x="227" y="223.5"/><rect fill="#FFFFFF" height="126.0879" rx="5" ry="5" style="stroke:#FFFFFF;stroke-width:1.0;" width="122" x="289" y="171"/><text fill="#000000" font-family="Verdana" font-size="14" font-weight="bold" lengthAdjust="spacing" textLength="15" x="294" y="187.0752">id</text><text fill="#000000" font-family="Verdana" font-size="14" lengthAdjust="spacing" textLength="36" x="365" y="187.0752">0001</text><line style="stroke:#000000;stroke-width:1.0;" x1="360" x2="360" y1="171" y2="192.0146"/><line style="stroke:#000000;stroke-width:1.0;" x1="289" x2="411" y1="192.0146" y2="192.0146"/><text fill="#000000" font-family="Verdana" font-size="14" font-weight="bold" lengthAdjust="spacing" textLength="34" x="294" y="208.0898">type</text><text fill="#000000" font-family="Verdana" font-size="14" lengthAdjust="spacing" textLength="41" x="365" y="208.0898">donut</text><line style="stroke:#000000;stroke-width:1.0;" x1="360" x2="360" y1="192.0146" y2="213.0293"/><line style="stroke:#000000;stroke-width:1.0;" x1="289" x2="411" y1="213.0293" y2="213.0293"/><text fill="#000000" font-family="Verdana" font-size="14" font-weight="bold" lengthAdjust="spacing" textLength="43" x="294" y="229.1045">name</text><text fill="#000000" font-family="Verdana" font-size="14" lengthAdjust="spacing" textLength="34" x="365" y="229.1045">Cake</text><line style="stroke:#000000;stroke-width:1.0;" x1="360" x2="360" y1="213.0293" y2="234.0439"/><line style="stroke:#000000;stroke-width:1.0;" x1="289" x2="411" y1="234.0439" y2="234.0439"/><text fill="#000000" font-family="Verdana" font-size="14" font-weight="bold" lengthAdjust="spacing" textLength="30" x="294" y="250.1191">ppu</text><text fill="#000000" font-family="Verdana" font-size="14" lengthAdjust="spacing" textLength="32" x="365" y="250.1191">0.55</text><line style="stroke:#000000;stroke-width:1.0;" x1="360" x2="360" y1="234.0439" y2="255.0586"/><line style="stroke:#000000;stroke-width:1.0;" x1="289" x2="411" y1="255.0586" y2="255.0586"/><text fill="#000000" font-family="Verdana" font-size="14" font-weight="bold" lengthAdjust="spacing" textLength="55" x="294" y="271.1338">batters</text><text fill="#000000" font-family="Verdana" font-size="14" lengthAdjust="spacing" textLength="15" x="365" y="271.1338">   </text><line style="stroke:#000000;stroke-width:1.0;" x1="360" x2="360" y1="255.0586" y2="276.0732"/><line style="stroke:#000000;stroke-width:1.0;" x1="289" x2="411" y1="276.0732" y2="276.0732"/><text fill="#000000" font-family="Verdana" font-size="14" font-weight="bold" lengthAdjust="spacing" textLength="61" x="294" y="292.1484">topping</text><text fill="#000000" font-family="Verdana" font-size="14" lengthAdjust="spacing" textLength="15" x="365" y="292.1484">   </text><line style="stroke:#000000;stroke-width:1.0;" x1="360" x2="360" y1="276.0732" y2="297.0879"/><rect fill="none" height="126.0879" rx="5" ry="5" style="stroke:#000000;stroke-width:1.0;" width="122" x="289" y="171"/><rect fill="#FFFFFF" height="21.0146" rx="5" ry="5" style="stroke:#FFFFFF;stroke-width:1.0;" width="82" x="448" y="155.5"/><text fill="#000000" font-family="Verdana" font-size="14" font-weight="bold" lengthAdjust="spacing" textLength="47" x="453" y="171.5752">batter</text><text fill="#000000" font-family="Verdana" font-size="14" lengthAdjust="spacing" textLength="15" x="510" y="171.5752">   </text><line style="stroke:#000000;stroke-width:1.0;" x1="505" x2="505" y1="155.5" y2="176.5146"/><rect fill="none" height="21.0146" rx="5" ry="5" style="stroke:#000000;stroke-width:1.0;" width="82" x="448" y="155.5"/><rect fill="#FFFFFF" height="84.0586" rx="5" ry="5" style="stroke:#FFFFFF;stroke-width:1.0;" width="25" x="668" y="74"/><text fill="#000000" font-family="Verdana" font-size="14" lengthAdjust="spacing" textLength="15" x="673" y="90.0752">   </text><line style="stroke:#000000;stroke-width:1.0;" x1="668" x2="693" y1="95.0146" y2="95.0146"/><text fill="#000000" font-family="Verdana" font-size="14" lengthAdjust="spacing" textLength="15" x="673" y="111.0898">   </text><line style="stroke:#000000;stroke-width:1.0;" x1="668" x2="693" y1="116.0293" y2="116.0293"/><text fill="#000000" font-family="Verdana" font-size="14" lengthAdjust="spacing" textLength="15" x="673" y="132.1045">   </text><line style="stroke:#000000;stroke-width:1.0;" x1="668" x2="693" y1="137.0439" y2="137.0439"/><text fill="#000000" font-family="Verdana" font-size="14" lengthAdjust="spacing" textLength="15" x="673" y="153.1191">   </text><rect fill="none" height="84.0586" rx="5" ry="5" style="stroke:#000000;stroke-width:1.0;" width="25" x="668" y="74"/><rect fill="#FFFFFF" height="42.0293" rx="5" ry="5" style="stroke:#FFFFFF;stroke-width:1.0;" width="108" x="846" y="5"/><text fill="#000000" font-family="Verdana" font-size="14" font-weight="bold" lengthAdjust="spacing" textLength="15" x="851" y="21.0752">id</text><text fill="#000000" font-family="Verdana" font-size="14" lengthAdjust="spacing" textLength="36" x="895" y="21.0752">1001</text><line style="stroke:#000000;stroke-width:1.0;" x1="890" x2="890" y1="5" y2="26.0146"/><line style="stroke:#000000;stroke-width:1.0;" x1="846" x2="954" y1="26.0146" y2="26.0146"/><text fill="#000000" font-family="Verdana" font-size="14" font-weight="bold" lengthAdjust="spacing" textLength="34" x="851" y="42.0898">type</text><text fill="#000000" font-family="Verdana" font-size="14" lengthAdjust="spacing" textLength="54" x="895" y="42.0898">Regular</text><line style="stroke:#000000;stroke-width:1.0;" x1="890" x2="890" y1="26.0146" y2="47.0293"/><rect fill="none" height="42.0293" rx="5" ry="5" style="stroke:#000000;stroke-width:1.0;" width="108" x="846" y="5"/><rect fill="#FFFFFF" height="42.0293" rx="5" ry="5" style="stroke:#FFFFFF;stroke-width:1.0;" width="122" x="839" y="65"/><text fill="#000000" font-family="Verdana" font-size="14" font-weight="bold" lengthAdjust="spacing" textLength="15" x="844" y="81.0752">id</text><text fill="#000000" font-family="Verdana" font-size="14" lengthAdjust="spacing" textLength="36" x="888" y="81.0752">1002</text><line style="stroke:#000000;stroke-width:1.0;" x1="883" x2="883" y1="65" y2="86.0146"/><line style="stroke:#000000;stroke-width:1.0;" x1="839" x2="961" y1="86.0146" y2="86.0146"/><text fill="#000000" font-family="Verdana" font-size="14" font-weight="bold" lengthAdjust="spacing" textLength="34" x="844" y="102.0898">type</text><text fill="#000000" font-family="Verdana" font-size="14" lengthAdjust="spacing" textLength="68" x="888" y="102.0898">Chocolate</text><line style="stroke:#000000;stroke-width:1.0;" x1="883" x2="883" y1="86.0146" y2="107.0293"/><rect fill="none" height="42.0293" rx="5" ry="5" style="stroke:#000000;stroke-width:1.0;" width="122" x="839" y="65"/><rect fill="#FFFFFF" height="42.0293" rx="5" ry="5" style="stroke:#FFFFFF;stroke-width:1.0;" width="122" x="839" y="125"/><text fill="#000000" font-family="Verdana" font-size="14" font-weight="bold" lengthAdjust="spacing" textLength="15" x="844" y="141.0752">id</text><text fill="#000000" font-family="Verdana" font-size="14" lengthAdjust="spacing" textLength="36" x="888" y="141.0752">1003</text><line style="stroke:#000000;stroke-width:1.0;" x1="883" x2="883" y1="125" y2="146.0146"/><line style="stroke:#000000;stroke-width:1.0;" x1="839" x2="961" y1="146.0146" y2="146.0146"/><text fill="#000000" font-family="Verdana" font-size="14" font-weight="bold" lengthAdjust="spacing" textLength="34" x="844" y="162.0898">type</text><text fill="#000000" font-family="Verdana" font-size="14" lengthAdjust="spacing" textLength="68" x="888" y="162.0898">Blueberry</text><line style="stroke:#000000;stroke-width:1.0;" x1="883" x2="883" y1="146.0146" y2="167.0293"/><rect fill="none" height="42.0293" rx="5" ry="5" style="stroke:#000000;stroke-width:1.0;" width="122" x="839" y="125"/><rect fill="#FFFFFF" height="42.0293" rx="5" ry="5" style="stroke:#FFFFFF;stroke-width:1.0;" width="138" x="831" y="185"/><text fill="#000000" font-family="Verdana" font-size="14" font-weight="bold" lengthAdjust="spacing" textLength="15" x="836" y="201.0752">id</text><text fill="#000000" font-family="Verdana" font-size="14" lengthAdjust="spacing" textLength="36" x="880" y="201.0752">1004</text><line style="stroke:#000000;stroke-width:1.0;" x1="875" x2="875" y1="185" y2="206.0146"/><line style="stroke:#000000;stroke-width:1.0;" x1="831" x2="969" y1="206.0146" y2="206.0146"/><text fill="#000000" font-family="Verdana" font-size="14" font-weight="bold" lengthAdjust="spacing" textLength="34" x="836" y="222.0898">type</text><text fill="#000000" font-family="Verdana" font-size="14" lengthAdjust="spacing" textLength="84" x="880" y="222.0898">Devil's Food</text><line style="stroke:#000000;stroke-width:1.0;" x1="875" x2="875" y1="206.0146" y2="227.0293"/><rect fill="none" height="42.0293" rx="5" ry="5" style="stroke:#000000;stroke-width:1.0;" width="138" x="831" y="185"/><rect fill="#FFFFFF" height="147.1025" rx="5" ry="5" style="stroke:#FFFFFF;stroke-width:1.0;" width="25" x="476.5" y="283.5"/><text fill="#000000" font-family="Verdana" font-size="14" lengthAdjust="spacing" textLength="15" x="481.5" y="299.5752">   </text><line style="stroke:#000000;stroke-width:1.0;" x1="476.5" x2="501.5" y1="304.5146" y2="304.5146"/><text fill="#000000" font-family="Verdana" font-size="14" lengthAdjust="spacing" textLength="15" x="481.5" y="320.5898">   </text><line style="stroke:#000000;stroke-width:1.0;" x1="476.5" x2="501.5" y1="325.5293" y2="325.5293"/><text fill="#000000" font-family="Verdana" font-size="14" lengthAdjust="spacing" textLength="15" x="481.5" y="341.6045">   </text><line style="stroke:#000000;stroke-width:1.0;" x1="476.5" x2="501.5" y1="346.5439" y2="346.5439"/><text fill="#000000" font-family="Verdana" font-size="14" lengthAdjust="spacing" textLength="15" x="481.5" y="362.6191">   </text><line style="stroke:#000000;stroke-width:1.0;" x1="476.5" x2="501.5" y1="367.5586" y2="367.5586"/><text fill="#000000" font-family="Verdana" font-size="14" lengthAdjust="spacing" textLength="15" x="481.5" y="383.6338">   </text><line style="stroke:#000000;stroke-width:1.0;" x1="476.5" x2="501.5" y1="388.5732" y2="388.5732"/><text fill="#000000" font-family="Verdana" font-size="14" lengthAdjust="spacing" textLength="15" x="481.5" y="404.6484">   </text><line style="stroke:#000000;stroke-width:1.0;" x1="476.5" x2="501.5" y1="409.5879" y2="409.5879"/><text fill="#000000" font-family="Verdana" font-size="14" lengthAdjust="spacing" textLength="15" x="481.5" y="425.6631">   </text><rect fill="none" height="147.1025" rx="5" ry="5" style="stroke:#000000;stroke-width:1.0;" width="25" x="476.5" y="283.5"/><rect fill="#FFFFFF" height="42.0293" rx="5" ry="5" style="stroke:#FFFFFF;stroke-width:1.0;" width="90" x="635.5" y="176"/><text fill="#000000" font-family="Verdana" font-size="14" font-weight="bold" lengthAdjust="spacing" textLength="15" x="640.5" y="192.0752">id</text><text fill="#000000" font-family="Verdana" font-size="14" lengthAdjust="spacing" textLength="36" x="684.5" y="192.0752">5001</text><line style="stroke:#000000;stroke-width:1.0;" x1="679.5" x2="679.5" y1="176" y2="197.0146"/><line style="stroke:#000000;stroke-width:1.0;" x1="635.5" x2="725.5" y1="197.0146" y2="197.0146"/><text fill="#000000" font-family="Verdana" font-size="14" font-weight="bold" lengthAdjust="spacing" textLength="34" x="640.5" y="213.0898">type</text><text fill="#000000" font-family="Verdana" font-size="14" lengthAdjust="spacing" textLength="35" x="684.5" y="213.0898">None</text><line style="stroke:#000000;stroke-width:1.0;" x1="679.5" x2="679.5" y1="197.0146" y2="218.0293"/><rect fill="none" height="42.0293" rx="5" ry="5" style="stroke:#000000;stroke-width:1.0;" width="90" x="635.5" y="176"/><rect fill="#FFFFFF" height="42.0293" rx="5" ry="5" style="stroke:#FFFFFF;stroke-width:1.0;" width="101" x="630" y="236"/><text fill="#000000" font-family="Verdana" font-size="14" font-weight="bold" lengthAdjust="spacing" textLength="15" x="635" y="252.0752">id</text><text fill="#000000" font-family="Verdana" font-size="14" lengthAdjust="spacing" textLength="36" x="679" y="252.0752">5002</text><line style="stroke:#000000;stroke-width:1.0;" x1="674" x2="674" y1="236" y2="257.0146"/><line style="stroke:#000000;stroke-width:1.0;" x1="630" x2="731" y1="257.0146" y2="257.0146"/><text fill="#000000" font-family="Verdana" font-size="14" font-weight="bold" lengthAdjust="spacing" textLength="34" x="635" y="273.0898">type</text><text fill="#000000" font-family="Verdana" font-size="14" lengthAdjust="spacing" textLength="47" x="679" y="273.0898">Glazed</text><line style="stroke:#000000;stroke-width:1.0;" x1="674" x2="674" y1="257.0146" y2="278.0293"/><rect fill="none" height="42.0293" rx="5" ry="5" style="stroke:#000000;stroke-width:1.0;" width="101" x="630" y="236"/><rect fill="#FFFFFF" height="42.0293" rx="5" ry="5" style="stroke:#FFFFFF;stroke-width:1.0;" width="96" x="632.5" y="296"/><text fill="#000000" font-family="Verdana" font-size="14" font-weight="bold" lengthAdjust="spacing" textLength="15" x="637.5" y="312.0752">id</text><text fill="#000000" font-family="Verdana" font-size="14" lengthAdjust="spacing" textLength="36" x="681.5" y="312.0752">5005</text><line style="stroke:#000000;stroke-width:1.0;" x1="676.5" x2="676.5" y1="296" y2="317.0146"/><line style="stroke:#000000;stroke-width:1.0;" x1="632.5" x2="728.5" y1="317.0146" y2="317.0146"/><text fill="#000000" font-family="Verdana" font-size="14" font-weight="bold" lengthAdjust="spacing" textLength="34" x="637.5" y="333.0898">type</text><text fill="#000000" font-family="Verdana" font-size="14" lengthAdjust="spacing" textLength="42" x="681.5" y="333.0898">Sugar</text><line style="stroke:#000000;stroke-width:1.0;" x1="676.5" x2="676.5" y1="317.0146" y2="338.0293"/><rect fill="none" height="42.0293" rx="5" ry="5" style="stroke:#000000;stroke-width:1.0;" width="96" x="632.5" y="296"/><rect fill="#FFFFFF" height="42.0293" rx="5" ry="5" style="stroke:#FFFFFF;stroke-width:1.0;" width="168" x="596.5" y="356"/><text fill="#000000" font-family="Verdana" font-size="14" font-weight="bold" lengthAdjust="spacing" textLength="15" x="601.5" y="372.0752">id</text><text fill="#000000" font-family="Verdana" font-size="14" lengthAdjust="spacing" textLength="36" x="645.5" y="372.0752">5007</text><line style="stroke:#000000;stroke-width:1.0;" x1="640.5" x2="640.5" y1="356" y2="377.0146"/><line style="stroke:#000000;stroke-width:1.0;" x1="596.5" x2="764.5" y1="377.0146" y2="377.0146"/><text fill="#000000" font-family="Verdana" font-size="14" font-weight="bold" lengthAdjust="spacing" textLength="34" x="601.5" y="393.0898">type</text><text fill="#000000" font-family="Verdana" font-size="14" lengthAdjust="spacing" textLength="114" x="645.5" y="393.0898">Powdered Sugar</text><line style="stroke:#000000;stroke-width:1.0;" x1="640.5" x2="640.5" y1="377.0146" y2="398.0293"/><rect fill="none" height="42.0293" rx="5" ry="5" style="stroke:#000000;stroke-width:1.0;" width="168" x="596.5" y="356"/><rect fill="#FFFFFF" height="42.0293" rx="5" ry="5" style="stroke:#FFFFFF;stroke-width:1.0;" width="227" x="567" y="416"/><text fill="#000000" font-family="Verdana" font-size="14" font-weight="bold" lengthAdjust="spacing" textLength="15" x="572" y="432.0752">id</text><text fill="#000000" font-family="Verdana" font-size="14" lengthAdjust="spacing" textLength="36" x="616" y="432.0752">5006</text><line style="stroke:#000000;stroke-width:1.0;" x1="611" x2="611" y1="416" y2="437.0146"/><line style="stroke:#000000;stroke-width:1.0;" x1="567" x2="794" y1="437.0146" y2="437.0146"/><text fill="#000000" font-family="Verdana" font-size="14" font-weight="bold" lengthAdjust="spacing" textLength="34" x="572" y="453.0898">type</text><text fill="#000000" font-family="Verdana" font-size="14" lengthAdjust="spacing" textLength="173" x="616" y="453.0898">Chocolate with Sprinkles</text><line style="stroke:#000000;stroke-width:1.0;" x1="611" x2="611" y1="437.0146" y2="458.0293"/><rect fill="none" height="42.0293" rx="5" ry="5" style="stroke:#000000;stroke-width:1.0;" width="227" x="567" y="416"/><rect fill="#FFFFFF" height="42.0293" rx="5" ry="5" style="stroke:#FFFFFF;stroke-width:1.0;" width="122" x="619.5" y="476"/><text fill="#000000" font-family="Verdana" font-size="14" font-weight="bold" lengthAdjust="spacing" textLength="15" x="624.5" y="492.0752">id</text><text fill="#000000" font-family="Verdana" font-size="14" lengthAdjust="spacing" textLength="36" x="668.5" y="492.0752">5003</text><line style="stroke:#000000;stroke-width:1.0;" x1="663.5" x2="663.5" y1="476" y2="497.0146"/><line style="stroke:#000000;stroke-width:1.0;" x1="619.5" x2="741.5" y1="497.0146" y2="497.0146"/><text fill="#000000" font-family="Verdana" font-size="14" font-weight="bold" lengthAdjust="spacing" textLength="34" x="624.5" y="513.0898">type</text><text fill="#000000" font-family="Verdana" font-size="14" lengthAdjust="spacing" textLength="68" x="668.5" y="513.0898">Chocolate</text><line style="stroke:#000000;stroke-width:1.0;" x1="663.5" x2="663.5" y1="497.0146" y2="518.0293"/><rect fill="none" height="42.0293" rx="5" ry="5" style="stroke:#000000;stroke-width:1.0;" width="122" x="619.5" y="476"/><rect fill="#FFFFFF" height="42.0293" rx="5" ry="5" style="stroke:#FFFFFF;stroke-width:1.0;" width="95" x="633" y="536"/><text fill="#000000" font-family="Verdana" font-size="14" font-weight="bold" lengthAdjust="spacing" textLength="15" x="638" y="552.0752">id</text><text fill="#000000" font-family="Verdana" font-size="14" lengthAdjust="spacing" textLength="36" x="682" y="552.0752">5004</text><line style="stroke:#000000;stroke-width:1.0;" x1="677" x2="677" y1="536" y2="557.0146"/><line style="stroke:#000000;stroke-width:1.0;" x1="633" x2="728" y1="557.0146" y2="557.0146"/><text fill="#000000" font-family="Verdana" font-size="14" font-weight="bold" lengthAdjust="spacing" textLength="34" x="638" y="573.0898">type</text><text fill="#000000" font-family="Verdana" font-size="14" lengthAdjust="spacing" textLength="41" x="682" y="573.0898">Maple</text><line style="stroke:#000000;stroke-width:1.0;" x1="677" x2="677" y1="557.0146" y2="578.0293"/><rect fill="none" height="42.0293" rx="5" ry="5" style="stroke:#000000;stroke-width:1.0;" width="95" x="633" y="536"/><path d="M682,84 L695,84 C747.7425,84 805.3324,65.9229 845.9188,49.9528 " fill="none" style="stroke:#000000;stroke-width:1.0;stroke-dasharray:3.0,3.0;"/><path d="M847.0586,52.8016 L848.0554,49.098 L844.779,47.1041 L853.0408,47.1034 L847.0586,52.8016 " fill="#000000" style="stroke:#000000;stroke-width:1.0;"/><ellipse cx="682" cy="84" fill="#000000" rx="3" ry="3" style="stroke:#000000;stroke-width:1.0;"/><path d="M682,105 L695,105 C740.629,105 791.7402,100.2523 831.451,95.5035 " fill="none" style="stroke:#000000;stroke-width:1.0;stroke-dasharray:3.0,3.0;"/><path d="M831.8304,98.6175 L833.7866,95.219 L831.0717,92.3894 L839.2362,94.5551 L831.8304,98.6175 " fill="#000000" style="stroke:#000000;stroke-width:1.0;"/><ellipse cx="682" cy="105" fill="#000000" rx="3" ry="3" style="stroke:#000000;stroke-width:1.0;"/><path d="M682,127 L695,127 C740.629,127 791.7402,131.7477 831.451,136.4965 " fill="none" style="stroke:#000000;stroke-width:1.0;stroke-dasharray:3.0,3.0;"/><path d="M831.0717,139.6106 L833.7866,136.781 L831.8304,133.3825 L839.2362,137.4449 L831.0717,139.6106 " fill="#000000" style="stroke:#000000;stroke-width:1.0;"/><ellipse cx="682" cy="127" fill="#000000" rx="3" ry="3" style="stroke:#000000;stroke-width:1.0;"/><path d="M682,148 L695,148 C747.7425,148 805.3324,166.0771 845.9188,182.0472 " fill="none" style="stroke:#000000;stroke-width:1.0;stroke-dasharray:3.0,3.0;"/><path d="M844.779,184.8959 L848.0554,182.902 L847.0586,179.1984 L853.0408,184.8966 L844.779,184.8959 " fill="#000000" style="stroke:#000000;stroke-width:1.0;"/><ellipse cx="682" cy="148" fill="#000000" rx="3" ry="3" style="stroke:#000000;stroke-width:1.0;"/><path d="M518,166 L531,166 C580.3434,166 634.3262,141.0496 661.771,126.3989 " fill="none" style="stroke:#000000;stroke-width:1.0;stroke-dasharray:3.0,3.0;"/><path d="M663.2333,129.0787 L663.7809,125.3022 L660.3087,123.7191 L668.4706,122.7432 L663.2333,129.0787 " fill="#000000" style="stroke:#000000;stroke-width:1.0;"/><ellipse cx="518" cy="166" fill="#000000" rx="3" ry="3" style="stroke:#000000;stroke-width:1.0;"/><path d="M399,266 L412,266 C452.7595,266 474.7287,212.9443 483.6558,184.1237 " fill="none" style="stroke:#000000;stroke-width:1.0;stroke-dasharray:3.0,3.0;"/><path d="M486.6246,184.9945 L484.3089,181.8971 L480.687,183.253 L485.8327,176.7018 L486.6246,184.9945 " fill="#000000" style="stroke:#000000;stroke-width:1.0;"/><ellipse cx="399" cy="266" fill="#000000" rx="3" ry="3" style="stroke:#000000;stroke-width:1.0;"/><path d="M490.5,294 L503.5,294 C544.5269,294 531.7237,247.9474 567,227 C585.5706,215.9726 608.2259,208.9293 628.3619,204.4633 " fill="none" style="stroke:#000000;stroke-width:1.0;stroke-dasharray:3.0,3.0;"/><path d="M628.9973,207.4954 L630.636,203.9868 L627.7266,201.4312 L635.9421,202.8749 L628.9973,207.4954 " fill="#000000" style="stroke:#000000;stroke-width:1.0;"/><ellipse cx="490.5" cy="294" fill="#000000" rx="3" ry="3" style="stroke:#000000;stroke-width:1.0;"/><path d="M490.5,315 L503.5,315 C534.3441,315 537.8949,297.2104 567,287 C584.8484,280.7385 604.6759,275.0604 622.6766,270.3706 " fill="none" style="stroke:#000000;stroke-width:1.0;stroke-dasharray:3.0,3.0;"/><path d="M623.4559,273.4073 L624.9541,269.7861 L621.8973,267.334 L630.2682,268.4224 L623.4559,273.4073 " fill="#000000" style="stroke:#000000;stroke-width:1.0;"/><ellipse cx="490.5" cy="315" fill="#000000" rx="3" ry="3" style="stroke:#000000;stroke-width:1.0;"/><path d="M490.5,336 L503.5,336 C544.4729,336 590.4904,330.8759 625.2629,325.9497 " fill="none" style="stroke:#000000;stroke-width:1.0;stroke-dasharray:3.0,3.0;"/><path d="M625.7077,329.0255 L627.5697,325.6161 L624.8181,322.8739 L632.9524,324.8377 L625.7077,329.0255 " fill="#000000" style="stroke:#000000;stroke-width:1.0;"/><ellipse cx="490.5" cy="336" fill="#000000" rx="3" ry="3" style="stroke:#000000;stroke-width:1.0;"/><path d="M490.5,357 L503.5,357 C531.4064,357 561.6378,359.499 589.0635,362.7304 " fill="none" style="stroke:#000000;stroke-width:1.0;stroke-dasharray:3.0,3.0;"/><path d="M588.6918,365.7931 L591.3605,363.0092 L589.4352,359.6676 L596.7203,363.6597 L588.6918,365.7931 " fill="#000000" style="stroke:#000000;stroke-width:1.0;"/><ellipse cx="490.5" cy="357" fill="#000000" rx="3" ry="3" style="stroke:#000000;stroke-width:1.0;"/><path d="M490.5,378 L503.5,378 C534.5261,378 537.7912,396.5377 567,407 C573.4552,409.3122 580.1744,411.5365 586.9756,413.656 " fill="none" style="stroke:#000000;stroke-width:1.0;stroke-dasharray:3.0,3.0;"/><path d="M586.0725,416.6174 L589.1966,414.3333 L587.8787,410.6946 L594.3791,415.9138 L586.0725,416.6174 " fill="#000000" style="stroke:#000000;stroke-width:1.0;"/><ellipse cx="490.5" cy="378" fill="#000000" rx="3" ry="3" style="stroke:#000000;stroke-width:1.0;"/><path d="M490.5,399 L503.5,399 C544.8507,399 531.5237,445.756 567,467 C580.6932,475.1998 596.6356,481.1927 612.1536,485.5609 " fill="none" style="stroke:#000000;stroke-width:1.0;stroke-dasharray:3.0,3.0;"/><path d="M611.3471,488.5897 L614.4253,486.1658 L612.9602,482.532 L619.7257,487.5773 L611.3471,488.5897 " fill="#000000" style="stroke:#000000;stroke-width:1.0;"/><ellipse cx="490.5" cy="399" fill="#000000" rx="3" ry="3" style="stroke:#000000;stroke-width:1.0;"/><path d="M490.5,420 L503.5,420 C558.7994,420 522.8885,493.6503 567,527 C583.8694,539.7538 605.7249,547.0955 625.7136,551.3179 " fill="none" style="stroke:#000000;stroke-width:1.0;stroke-dasharray:3.0,3.0;"/><path d="M625.1255,554.34 L627.9802,551.759 L626.3017,548.2958 L633.2688,552.7882 L625.1255,554.34 " fill="#000000" style="stroke:#000000;stroke-width:1.0;"/><ellipse cx="490.5" cy="420" fill="#000000" rx="3" ry="3" style="stroke:#000000;stroke-width:1.0;"/><path d="M399,287 L412,287 C438.2017,287 459.3378,309.6268 472.6988,329.1519 " fill="none" style="stroke:#000000;stroke-width:1.0;stroke-dasharray:3.0,3.0;"/><path d="M470.1126,330.8435 L473.9675,331.0915 L475.285,327.4602 L476.9279,335.6173 L470.1126,330.8435 " fill="#000000" style="stroke:#000000;stroke-width:1.0;"/><ellipse cx="399" cy="287" fill="#000000" rx="3" ry="3" style="stroke:#000000;stroke-width:1.0;"/><path d="M239.561,234 L252.561,234 C260.1378,234 270.4497,234 281.5299,234 " fill="none" style="stroke:#000000;stroke-width:1.0;stroke-dasharray:3.0,3.0;"/><path d="M281.5299,237.1078 L283.8608,234 L281.5299,230.8922 L289.2994,234 L281.5299,237.1078 " fill="#000000" style="stroke:#000000;stroke-width:1.0;"/><ellipse cx="239.561" cy="234" fill="#000000" rx="3" ry="3" style="stroke:#000000;stroke-width:1.0;"/><path d="M178,234 L191,234 C200.3464,234 210.7164,234 219.4192,234 " fill="none" style="stroke:#000000;stroke-width:1.0;stroke-dasharray:3.0,3.0;"/><path d="M219.4192,237.0981 L221.7428,234 L219.4192,230.9019 L227.1644,234 L219.4192,237.0981 " fill="#000000" style="stroke:#000000;stroke-width:1.0;"/><ellipse cx="178" cy="234" fill="#000000" rx="3" ry="3" style="stroke:#000000;stroke-width:1.0;"/><path d="M71,234 L84,234 C93.2753,234 103.237,234 112.666,234 " fill="none" style="stroke:#000000;stroke-width:1.0;stroke-dasharray:3.0,3.0;"/><path d="M112.666,237.1073 L114.9965,234 L112.666,230.8927 L120.4343,234 L112.666,237.1073 " fill="#000000" style="stroke:#000000;stroke-width:1.0;"/><ellipse cx="71" cy="234" fill="#000000" rx="3" ry="3" style="stroke:#000000;stroke-width:1.0;"/><!--MD5=[2d9ef28ae171a74ebaaee6eaf5997d9f]
@startjson 
!theme plain 
skinparam defaultFontName 思源宋体 VF
{
  "items": {
    "item": [
      {
        "id": "0001",
        "type": "donut",
        "name": "Cake",
        "ppu": 0.55,
        "batters": {
          "batter": [
            {
              "id": "1001",
              "type": "Regular"
            },
            {
              "id": "1002",
              "type": "Chocolate"
            },
            {
              "id": "1003",
              "type": "Blueberry"
            },
            {
              "id": "1004",
              "type": "Devil's Food"
            }
          ]
        },
        "topping": [
          {
            "id": "5001",
            "type": "None"
          },
          {
            "id": "5002",
            "type": "Glazed"
          },
          {
            "id": "5005",
            "type": "Sugar"
          },
          {
            "id": "5007",
            "type": "Powdered Sugar"
          },
          {
            "id": "5006",
            "type": "Chocolate with Sprinkles"
          },
          {
            "id": "5003",
            "type": "Chocolate"
          },
          {
            "id": "5004",
            "type": "Maple"
          }
        ]
      }
    ]
  }
}

@endjson

@startjson 







<style>
  root {
    BackgroundColor white
    FontColor black
    FontName Verdana
    HyperLinkColor blue
    LineColor black
    LineThickness 1
    Margin 5
  }
  caption {
    LineThickness 0
  }
  footer {
    LineThickness 0
  }
  header {
    LineThickness 0
  }
  node {
    MaximumWidth 300
  }
  title {
    FontSize 22
    LineThickness 0
  }
</style>

skinparam ArrowLollipopColor black
skinparam BackgroundColor white
skinparam DefaultFontName Verdana
skinparam DefaultMonospacedFontName Courier
skinparam LifelineStrategy nosolid
skinparam ParticipantPadding 10
skinparam SequenceLifeLineBorderColor black
skinparam Shadowing false
skinparam UseBetaStyle true

skinparam Activity {
  BackgroundColor white
  BarColor black
  BorderColor black
  FontColor black
  FontName Verdana
}
skinparam Boundary {
  FontColor black
}
skinparam Box {
  Padding 5
}
skinparam CircledCharacter {
  FontColor black
  FontName Courier
  Radius 9
}
skinparam Class {
  BackgroundColor white
  BorderColor black
  FontColor black
  FontName Verdana
}
skinparam ClassAttribute {
  FontColor black
  FontName Verdana
}
skinparam ClassStereotype {
  FontColor black
  FontName Verdana
}
skinparam Footer {
  FontColor black
  FontName Verdana
}
skinparam Header {
  FontColor black
  FontName Verdana
}
skinparam Hyperlink {
  Color blue
}
skinparam IconPackage {
  Color black
  BackgroundColor white
}
skinparam IconPrivate {
  Color black
  BackgroundColor white
}
skinparam IconProtected {
  Color black
  BackgroundColor white
}
skinparam IconPublic {
  Color black
  BackgroundColor white
}
skinparam Note {
  FontColor black
  FontName Verdana
}
skinparam Object {
  BorderColor black
}
skinparam Package {
  BorderColor black
  FontColor black
  FontName Verdana
}
skinparam State {
  BackgroundColor white
  BorderColor black
}
skinparam StereotypeA {
  BackgroundColor white
  BorderColor black
}
skinparam StereotypeC {
  BackgroundColor white
  BorderColor black
}
skinparam StereotypeE {
  BackgroundColor white
  BorderColor black
}
skinparam StereotypeI {
  BackgroundColor white
  BorderColor black
}
skinparam StereotypeN {
  BackgroundColor white
  BorderColor black
}
skinparam UseCaseStereoType {
  FontColor black
  FontName Verdana
}
skinparam defaultFontName 思源宋体 VF
{
  "items": {
    "item": [
      {
        "id": "0001",
        "type": "donut",
        "name": "Cake",
        "ppu": 0.55,
        "batters": {
          "batter": [
            {
              "id": "1001",
              "type": "Regular"
            },
            {
              "id": "1002",
              "type": "Chocolate"
            },
            {
              "id": "1003",
              "type": "Blueberry"
            },
            {
              "id": "1004",
              "type": "Devil's Food"
            }
          ]
        },
        "topping": [
          {
            "id": "5001",
            "type": "None"
          },
          {
            "id": "5002",
            "type": "Glazed"
          },
          {
            "id": "5005",
            "type": "Sugar"
          },
          {
            "id": "5007",
            "type": "Powdered Sugar"
          },
          {
            "id": "5006",
            "type": "Chocolate with Sprinkles"
          },
          {
            "id": "5003",
            "type": "Chocolate"
          },
          {
            "id": "5004",
            "type": "Maple"
          }
        ]
      }
    ]
  }
}

@endjson

PlantUML version 1.2022.6(Wed Jun 22 01:34:49 CST 2022)
(GPL source distribution)
Java Runtime: OpenJDK Runtime Environment
JVM: OpenJDK 64-Bit Server VM
Default Encoding: UTF-8
Language: zh
Country: CN
--></g></svg>