<?xml version="1.0" encoding="UTF-8" standalone="no"?><svg xmlns="http://www.w3.org/2000/svg" xmlns:xlink="http://www.w3.org/1999/xlink" contentStyleType="text/css" height="1220px" preserveAspectRatio="none" style="width:677px;height:1220px;background:#FFFFFF;" version="1.1" viewBox="0 0 677 1220" width="677px" zoomAndPan="magnify"><defs/><g><rect fill="#FFFFFF" height="36.4883" rx="12.5" ry="12.5" style="stroke:#000000;stroke-width:1.0;" width="152" x="5" y="591.1035"/><text fill="#000000" font-family="思源宋体 VF" font-size="14" font-weight="bold" lengthAdjust="spacing" textLength="132" x="15" y="614.6387">1. Design Patterns</text><rect fill="#FFFFFF" height="36.4883" rx="12.5" ry="12.5" style="stroke:#000000;stroke-width:1.0;" width="229" x="197" y="126.2207"/><text fill="#000000" font-family="思源宋体 VF" font-size="14" font-weight="bold" lengthAdjust="spacing" textLength="209" x="207" y="149.7559">1. Creational design patterns</text><rect fill="#FFFFFF" height="36.4883" rx="12.5" ry="12.5" style="stroke:#000000;stroke-width:1.0;" width="154" x="466" y="10"/><text fill="#000000" font-family="思源宋体 VF" font-size="14" font-weight="bold" lengthAdjust="spacing" textLength="134" x="476" y="33.5352">1. Abstract Factory</text><path d="M426,144.4648 L436,144.4648 C451,144.4648 441,28.2441 456,28.2441 L466,28.2441 " fill="none" style="stroke:#000000;stroke-width:1.0;"/><rect fill="#FFFFFF" height="36.4883" rx="12.5" ry="12.5" style="stroke:#000000;stroke-width:1.0;" width="88" x="466" y="56.4883"/><text fill="#000000" font-family="思源宋体 VF" font-size="14" font-weight="bold" lengthAdjust="spacing" textLength="68" x="476" y="80.0234">2. Builder</text><path d="M426,144.4648 L436,144.4648 C451,144.4648 441,74.7324 456,74.7324 L466,74.7324 " fill="none" style="stroke:#000000;stroke-width:1.0;"/><rect fill="#FFFFFF" height="36.4883" rx="12.5" ry="12.5" style="stroke:#000000;stroke-width:1.0;" width="148" x="466" y="102.9766"/><text fill="#000000" font-family="思源宋体 VF" font-size="14" font-weight="bold" lengthAdjust="spacing" textLength="128" x="476" y="126.5117">3. Factory Method</text><path d="M426,144.4648 L436,144.4648 C451,144.4648 441,121.2207 456,121.2207 L466,121.2207 " fill="none" style="stroke:#000000;stroke-width:1.0;"/><rect fill="#FFFFFF" height="36.4883" rx="12.5" ry="12.5" style="stroke:#000000;stroke-width:1.0;" width="121" x="466" y="149.4648"/><text fill="#000000" font-family="思源宋体 VF" font-size="14" font-weight="bold" lengthAdjust="spacing" textLength="101" x="476" y="173">4. Object Pool</text><path d="M426,144.4648 L436,144.4648 C451,144.4648 441,167.709 456,167.709 L466,167.709 " fill="none" style="stroke:#000000;stroke-width:1.0;"/><rect fill="#FFFFFF" height="36.4883" rx="12.5" ry="12.5" style="stroke:#000000;stroke-width:1.0;" width="107" x="466" y="195.9531"/><text fill="#000000" font-family="思源宋体 VF" font-size="14" font-weight="bold" lengthAdjust="spacing" textLength="87" x="476" y="219.4883">5. Prototype</text><path d="M426,144.4648 L436,144.4648 C451,144.4648 441,214.1973 456,214.1973 L466,214.1973 " fill="none" style="stroke:#000000;stroke-width:1.0;"/><rect fill="#FFFFFF" height="36.4883" rx="12.5" ry="12.5" style="stroke:#000000;stroke-width:1.0;" width="105" x="466" y="242.4414"/><text fill="#000000" font-family="思源宋体 VF" font-size="14" font-weight="bold" lengthAdjust="spacing" textLength="85" x="476" y="265.9766">6. Singleton</text><path d="M426,144.4648 L436,144.4648 C451,144.4648 441,260.6855 456,260.6855 L466,260.6855 " fill="none" style="stroke:#000000;stroke-width:1.0;"/><path d="M157,609.3477 L167,609.3477 C182,609.3477 172,144.4648 187,144.4648 L197,144.4648 " fill="none" style="stroke:#000000;stroke-width:1.0;"/><rect fill="#FFFFFF" height="36.4883" rx="12.5" ry="12.5" style="stroke:#000000;stroke-width:1.0;" width="225" x="197" y="451.6387"/><text fill="#000000" font-family="思源宋体 VF" font-size="14" font-weight="bold" lengthAdjust="spacing" textLength="205" x="207" y="475.1738">2. Structural design patterns</text><rect fill="#FFFFFF" height="36.4883" rx="12.5" ry="12.5" style="stroke:#000000;stroke-width:1.0;" width="93" x="462" y="288.9297"/><text fill="#000000" font-family="思源宋体 VF" font-size="14" font-weight="bold" lengthAdjust="spacing" textLength="73" x="472" y="312.4648">1. Adapter</text><path d="M422,469.8828 L432,469.8828 C447,469.8828 437,307.1738 452,307.1738 L462,307.1738 " fill="none" style="stroke:#000000;stroke-width:1.0;"/><rect fill="#FFFFFF" height="36.4883" rx="12.5" ry="12.5" style="stroke:#000000;stroke-width:1.0;" width="83" x="462" y="335.418"/><text fill="#000000" font-family="思源宋体 VF" font-size="14" font-weight="bold" lengthAdjust="spacing" textLength="63" x="472" y="358.9531">2. Bridge</text><path d="M422,469.8828 L432,469.8828 C447,469.8828 437,353.6621 452,353.6621 L462,353.6621 " fill="none" style="stroke:#000000;stroke-width:1.0;"/><rect fill="#FFFFFF" height="36.4883" rx="12.5" ry="12.5" style="stroke:#000000;stroke-width:1.0;" width="115" x="462" y="381.9063"/><text fill="#000000" font-family="思源宋体 VF" font-size="14" font-weight="bold" lengthAdjust="spacing" textLength="95" x="472" y="405.4414">3. Composite</text><path d="M422,469.8828 L432,469.8828 C447,469.8828 437,400.1504 452,400.1504 L462,400.1504 " fill="none" style="stroke:#000000;stroke-width:1.0;"/><rect fill="#FFFFFF" height="36.4883" rx="12.5" ry="12.5" style="stroke:#000000;stroke-width:1.0;" width="107" x="462" y="428.3945"/><text fill="#000000" font-family="思源宋体 VF" font-size="14" font-weight="bold" lengthAdjust="spacing" textLength="87" x="472" y="451.9297">4. Decorator</text><path d="M422,469.8828 L432,469.8828 C447,469.8828 437,446.6387 452,446.6387 L462,446.6387 " fill="none" style="stroke:#000000;stroke-width:1.0;"/><rect fill="#FFFFFF" height="36.4883" rx="12.5" ry="12.5" style="stroke:#000000;stroke-width:1.0;" width="85" x="462" y="474.8828"/><text fill="#000000" font-family="思源宋体 VF" font-size="14" font-weight="bold" lengthAdjust="spacing" textLength="65" x="472" y="498.418">5. Facade</text><path d="M422,469.8828 L432,469.8828 C447,469.8828 437,493.127 452,493.127 L462,493.127 " fill="none" style="stroke:#000000;stroke-width:1.0;"/><rect fill="#FFFFFF" height="36.4883" rx="12.5" ry="12.5" style="stroke:#000000;stroke-width:1.0;" width="107" x="462" y="521.3711"/><text fill="#000000" font-family="思源宋体 VF" font-size="14" font-weight="bold" lengthAdjust="spacing" textLength="87" x="472" y="544.9063">6. Flyweight</text><path d="M422,469.8828 L432,469.8828 C447,469.8828 437,539.6152 452,539.6152 L462,539.6152 " fill="none" style="stroke:#000000;stroke-width:1.0;"/><rect fill="#FFFFFF" height="36.4883" rx="12.5" ry="12.5" style="stroke:#000000;stroke-width:1.0;" width="169" x="462" y="567.8594"/><text fill="#000000" font-family="思源宋体 VF" font-size="14" font-weight="bold" lengthAdjust="spacing" textLength="149" x="472" y="591.3945">7. Private Class Data</text><path d="M422,469.8828 L432,469.8828 C447,469.8828 437,586.1035 452,586.1035 L462,586.1035 " fill="none" style="stroke:#000000;stroke-width:1.0;"/><rect fill="#FFFFFF" height="36.4883" rx="12.5" ry="12.5" style="stroke:#000000;stroke-width:1.0;" width="77" x="462" y="614.3477"/><text fill="#000000" font-family="思源宋体 VF" font-size="14" font-weight="bold" lengthAdjust="spacing" textLength="57" x="472" y="637.8828">8. Proxy</text><path d="M422,469.8828 L432,469.8828 C447,469.8828 437,632.5918 452,632.5918 L462,632.5918 " fill="none" style="stroke:#000000;stroke-width:1.0;"/><path d="M157,609.3477 L167,609.3477 C182,609.3477 172,469.8828 187,469.8828 L197,469.8828 " fill="none" style="stroke:#000000;stroke-width:1.0;"/><rect fill="#FFFFFF" height="36.4883" rx="12.5" ry="12.5" style="stroke:#000000;stroke-width:1.0;" width="230" x="197" y="916.5215"/><text fill="#000000" font-family="思源宋体 VF" font-size="14" font-weight="bold" lengthAdjust="spacing" textLength="210" x="207" y="940.0566">3. Behavioral design patterns</text><rect fill="#FFFFFF" height="36.4883" rx="12.5" ry="12.5" style="stroke:#000000;stroke-width:1.0;" width="203" x="467" y="660.8359"/><text fill="#000000" font-family="思源宋体 VF" font-size="14" font-weight="bold" lengthAdjust="spacing" textLength="183" x="477" y="684.3711">1. Chain of responsibility</text><path d="M427,934.7656 L437,934.7656 C452,934.7656 442,679.0801 457,679.0801 L467,679.0801 " fill="none" style="stroke:#000000;stroke-width:1.0;"/><rect fill="#FFFFFF" height="36.4883" rx="12.5" ry="12.5" style="stroke:#000000;stroke-width:1.0;" width="110" x="467" y="707.3242"/><text fill="#000000" font-family="思源宋体 VF" font-size="14" font-weight="bold" lengthAdjust="spacing" textLength="90" x="477" y="730.8594">2. Command</text><path d="M427,934.7656 L437,934.7656 C452,934.7656 442,725.5684 457,725.5684 L467,725.5684 " fill="none" style="stroke:#000000;stroke-width:1.0;"/><rect fill="#FFFFFF" height="36.4883" rx="12.5" ry="12.5" style="stroke:#000000;stroke-width:1.0;" width="114" x="467" y="753.8125"/><text fill="#000000" font-family="思源宋体 VF" font-size="14" font-weight="bold" lengthAdjust="spacing" textLength="94" x="477" y="777.3477">3. Interpreter</text><path d="M427,934.7656 L437,934.7656 C452,934.7656 442,772.0566 457,772.0566 L467,772.0566 " fill="none" style="stroke:#000000;stroke-width:1.0;"/><rect fill="#FFFFFF" height="36.4883" rx="12.5" ry="12.5" style="stroke:#000000;stroke-width:1.0;" width="91" x="467" y="800.3008"/><text fill="#000000" font-family="思源宋体 VF" font-size="14" font-weight="bold" lengthAdjust="spacing" textLength="71" x="477" y="823.8359">4. Iterator</text><path d="M427,934.7656 L437,934.7656 C452,934.7656 442,818.5449 457,818.5449 L467,818.5449 " fill="none" style="stroke:#000000;stroke-width:1.0;"/><rect fill="#FFFFFF" height="36.4883" rx="12.5" ry="12.5" style="stroke:#000000;stroke-width:1.0;" width="101" x="467" y="846.7891"/><text fill="#000000" font-family="思源宋体 VF" font-size="14" font-weight="bold" lengthAdjust="spacing" textLength="81" x="477" y="870.3242">5. Mediator</text><path d="M427,934.7656 L437,934.7656 C452,934.7656 442,865.0332 457,865.0332 L467,865.0332 " fill="none" style="stroke:#000000;stroke-width:1.0;"/><rect fill="#FFFFFF" height="36.4883" rx="12.5" ry="12.5" style="stroke:#000000;stroke-width:1.0;" width="104" x="467" y="893.2773"/><text fill="#000000" font-family="思源宋体 VF" font-size="14" font-weight="bold" lengthAdjust="spacing" textLength="84" x="477" y="916.8125">6. Memento</text><path d="M427,934.7656 L437,934.7656 C452,934.7656 442,911.5215 457,911.5215 L467,911.5215 " fill="none" style="stroke:#000000;stroke-width:1.0;"/><rect fill="#FFFFFF" height="36.4883" rx="12.5" ry="12.5" style="stroke:#000000;stroke-width:1.0;" width="119" x="467" y="939.7656"/><text fill="#000000" font-family="思源宋体 VF" font-size="14" font-weight="bold" lengthAdjust="spacing" textLength="99" x="477" y="963.3008">7. Null Object</text><path d="M427,934.7656 L437,934.7656 C452,934.7656 442,958.0098 457,958.0098 L467,958.0098 " fill="none" style="stroke:#000000;stroke-width:1.0;"/><rect fill="#FFFFFF" height="36.4883" rx="12.5" ry="12.5" style="stroke:#000000;stroke-width:1.0;" width="102" x="467" y="986.2539"/><text fill="#000000" font-family="思源宋体 VF" font-size="14" font-weight="bold" lengthAdjust="spacing" textLength="82" x="477" y="1009.7891">8. Observer</text><path d="M427,934.7656 L437,934.7656 C452,934.7656 442,1004.498 457,1004.498 L467,1004.498 " fill="none" style="stroke:#000000;stroke-width:1.0;"/><rect fill="#FFFFFF" height="36.4883" rx="12.5" ry="12.5" style="stroke:#000000;stroke-width:1.0;" width="73" x="467" y="1032.7422"/><text fill="#000000" font-family="思源宋体 VF" font-size="14" font-weight="bold" lengthAdjust="spacing" textLength="53" x="477" y="1056.2773">9. State</text><path d="M427,934.7656 L437,934.7656 C452,934.7656 442,1050.9863 457,1050.9863 L467,1050.9863 " fill="none" style="stroke:#000000;stroke-width:1.0;"/><rect fill="#FFFFFF" height="36.4883" rx="12.5" ry="12.5" style="stroke:#000000;stroke-width:1.0;" width="105" x="467" y="1079.2305"/><text fill="#000000" font-family="思源宋体 VF" font-size="14" font-weight="bold" lengthAdjust="spacing" textLength="85" x="477" y="1102.7656">10. Strategy</text><path d="M427,934.7656 L437,934.7656 C452,934.7656 442,1097.4746 457,1097.4746 L467,1097.4746 " fill="none" style="stroke:#000000;stroke-width:1.0;"/><rect fill="#FFFFFF" height="36.4883" rx="12.5" ry="12.5" style="stroke:#000000;stroke-width:1.0;" width="174" x="467" y="1125.7188"/><text fill="#000000" font-family="思源宋体 VF" font-size="14" font-weight="bold" lengthAdjust="spacing" textLength="154" x="477" y="1149.2539">11. Template method</text><path d="M427,934.7656 L437,934.7656 C452,934.7656 442,1143.9629 457,1143.9629 L467,1143.9629 " fill="none" style="stroke:#000000;stroke-width:1.0;"/><rect fill="#FFFFFF" height="36.4883" rx="12.5" ry="12.5" style="stroke:#000000;stroke-width:1.0;" width="95" x="467" y="1172.207"/><text fill="#000000" font-family="思源宋体 VF" font-size="14" font-weight="bold" lengthAdjust="spacing" textLength="75" x="477" y="1195.7422">12. Visitor</text><path d="M427,934.7656 L437,934.7656 C452,934.7656 442,1190.4512 457,1190.4512 L467,1190.4512 " fill="none" style="stroke:#000000;stroke-width:1.0;"/><path d="M157,609.3477 L167,609.3477 C182,609.3477 172,934.7656 187,934.7656 L197,934.7656 " fill="none" style="stroke:#000000;stroke-width:1.0;"/><!--MD5=[d63fa181e04a6ebe07d483c023f065dc]
@startmindmap 
!theme plain 
skinparam defaultFontName 思源宋体 VF

* <b>1. Design Patterns</b>
** <b>1. Creational design patterns</b>
*** <b>1. Abstract Factory</b>
*** <b>2. Builder</b>
*** <b>3. Factory Method</b>
*** <b>4. Object Pool</b>
*** <b>5. Prototype</b>
*** <b>6. Singleton</b>
** <b>2. Structural design patterns</b>
*** <b>1. Adapter</b>
*** <b>2. Bridge</b>
*** <b>3. Composite</b>
*** <b>4. Decorator</b>
*** <b>5. Facade</b>
*** <b>6. Flyweight</b>
*** <b>7. Private Class Data</b>
*** <b>8. Proxy</b>
** <b>3. Behavioral design patterns</b>
*** <b>1. Chain of responsibility</b>
*** <b>2. Command</b>
*** <b>3. Interpreter</b>
*** <b>4. Iterator</b>
*** <b>5. Mediator</b>
*** <b>6. Memento</b>
*** <b>7. Null Object</b>
*** <b>8. Observer</b>
*** <b>9. State</b>
*** <b>10. Strategy</b>
*** <b>11. Template method</b>
*** <b>12. Visitor</b>
@endmindmap

@startmindmap 







<style>
  root {
    BackgroundColor white
    FontColor black
    FontName Verdana
    HyperLinkColor blue
    LineColor black
    LineThickness 1
    Margin 5
  }
  caption {
    LineThickness 0
  }
  footer {
    LineThickness 0
  }
  header {
    LineThickness 0
  }
  node {
    MaximumWidth 300
  }
  title {
    FontSize 22
    LineThickness 0
  }
</style>

skinparam ArrowLollipopColor black
skinparam BackgroundColor white
skinparam DefaultFontName Verdana
skinparam DefaultMonospacedFontName Courier
skinparam LifelineStrategy nosolid
skinparam ParticipantPadding 10
skinparam SequenceLifeLineBorderColor black
skinparam Shadowing false
skinparam UseBetaStyle true

skinparam Activity {
  BackgroundColor white
  BarColor black
  BorderColor black
  FontColor black
  FontName Verdana
}
skinparam Boundary {
  FontColor black
}
skinparam Box {
  Padding 5
}
skinparam CircledCharacter {
  FontColor black
  FontName Courier
  Radius 9
}
skinparam Class {
  BackgroundColor white
  BorderColor black
  FontColor black
  FontName Verdana
}
skinparam ClassAttribute {
  FontColor black
  FontName Verdana
}
skinparam ClassStereotype {
  FontColor black
  FontName Verdana
}
skinparam Footer {
  FontColor black
  FontName Verdana
}
skinparam Header {
  FontColor black
  FontName Verdana
}
skinparam Hyperlink {
  Color blue
}
skinparam IconPackage {
  Color black
  BackgroundColor white
}
skinparam IconPrivate {
  Color black
  BackgroundColor white
}
skinparam IconProtected {
  Color black
  BackgroundColor white
}
skinparam IconPublic {
  Color black
  BackgroundColor white
}
skinparam Note {
  FontColor black
  FontName Verdana
}
skinparam Object {
  BorderColor black
}
skinparam Package {
  BorderColor black
  FontColor black
  FontName Verdana
}
skinparam State {
  BackgroundColor white
  BorderColor black
}
skinparam StereotypeA {
  BackgroundColor white
  BorderColor black
}
skinparam StereotypeC {
  BackgroundColor white
  BorderColor black
}
skinparam StereotypeE {
  BackgroundColor white
  BorderColor black
}
skinparam StereotypeI {
  BackgroundColor white
  BorderColor black
}
skinparam StereotypeN {
  BackgroundColor white
  BorderColor black
}
skinparam UseCaseStereoType {
  FontColor black
  FontName Verdana
}
skinparam defaultFontName 思源宋体 VF

* <b>1. Design Patterns</b>
** <b>1. Creational design patterns</b>
*** <b>1. Abstract Factory</b>
*** <b>2. Builder</b>
*** <b>3. Factory Method</b>
*** <b>4. Object Pool</b>
*** <b>5. Prototype</b>
*** <b>6. Singleton</b>
** <b>2. Structural design patterns</b>
*** <b>1. Adapter</b>
*** <b>2. Bridge</b>
*** <b>3. Composite</b>
*** <b>4. Decorator</b>
*** <b>5. Facade</b>
*** <b>6. Flyweight</b>
*** <b>7. Private Class Data</b>
*** <b>8. Proxy</b>
** <b>3. Behavioral design patterns</b>
*** <b>1. Chain of responsibility</b>
*** <b>2. Command</b>
*** <b>3. Interpreter</b>
*** <b>4. Iterator</b>
*** <b>5. Mediator</b>
*** <b>6. Memento</b>
*** <b>7. Null Object</b>
*** <b>8. Observer</b>
*** <b>9. State</b>
*** <b>10. Strategy</b>
*** <b>11. Template method</b>
*** <b>12. Visitor</b>
@endmindmap

PlantUML version 1.2022.6(Wed Jun 22 01:34:49 CST 2022)
(GPL source distribution)
Java Runtime: OpenJDK Runtime Environment
JVM: OpenJDK 64-Bit Server VM
Default Encoding: UTF-8
Language: zh
Country: CN
--></g></svg>